<svg width="712" height="380" viewBox="0 0 712 380" fill="none" xmlns="http://www.w3.org/2000/svg">
<path d="M502.722 111.781C501.819 105.836 501.782 101.284 501.857 99.4026C502.685 79.9136 510.548 69.6424 510.962 68.9652L511.225 68.6642C513.483 65.3909 515.928 62.4939 518.449 59.7474C511.188 53.2009 502.459 45.5633 491.924 36.7594C472.398 20.4308 450.539 -0.18684 399.973 0.00127799C363.252 0.114149 294.251 21.4843 227.544 28.407C151.319 36.3456 98.834 33.0723 98.834 33.0723C98.834 33.0723 107.939 39.9198 119.903 48.5356C209.409 50.0029 296.169 38.3773 377.549 15.3517C299.217 41.4248 230.516 55.6088 135.291 59.3335C139.618 62.3434 144.02 65.2781 148.234 68.0246C234.542 68.0998 318.217 55.0445 394.103 29.7615C320.926 61.4405 245.641 74.5334 166.481 78.973C167.836 79.6879 169.115 80.3275 170.281 80.8166C175.699 83.1869 182.132 85.4066 189.206 87.5136C269.344 85.1433 346.171 70.3196 414.608 43.8703C354.975 73.6305 290.94 88.5294 223.819 96.2422C235.595 98.8759 246.995 101.321 259.148 103.955C325.779 94.7373 387.218 79.5374 437.333 57.3771C394.705 81.7948 343.048 99.2897 287.704 110.351C297.938 112.872 310.165 116.258 318.631 119.117C367.579 109.147 411.937 92.0284 460.81 71.9374C421.907 94.0601 382.44 113.812 332.589 125.024C334.47 125.965 336.615 127.319 338.985 128.937C353.244 128.824 371.642 128.598 379.995 128.373C416.715 117.499 449.222 103.052 484.249 86.4977C461.638 101.434 437.182 114.791 411.147 126.303C456.408 122.729 484.851 117.048 502.685 111.705" fill="white" fill-opacity="0.04"/>
<path d="M711.081 118.517C710.743 117.351 710.254 116.147 709.689 115.131C704.497 105.65 704.234 106.666 696.183 96.5825C689.034 87.6657 682.224 85.2578 682.977 78.2974C683.391 74.5351 676.204 66.8975 676.204 66.8975C672.066 64.0757 665.933 62.1193 656.001 60.652L638.543 58.1312C630.793 49.9669 621.086 42.3293 615.33 45.0382C610.138 47.4838 606.563 53.2025 605.359 59.3352C604.87 51.2085 609.046 42.2917 615.969 39.0561C621.801 36.3096 631.658 44.06 639.559 52.4124L657.318 54.9708C660.779 55.4599 663.902 56.4382 666.949 57.6045C668.868 49.3649 667.852 36.3096 647.573 27.1294C647.573 27.1294 655.737 34.5413 651.185 48.0105C651.185 48.0105 648.288 36.6106 635.684 28.1829C630.116 24.4206 613.862 18.777 598.098 20.0938C587.262 20.9968 570.595 24.7215 559.158 30.7413C559.158 30.7413 588.542 21.373 611.342 31.9453C611.342 31.9453 595.088 29.9512 575.449 35.4442C549.376 42.7808 533.085 53.4659 517.772 76.3034C513.746 82.2855 510.285 92.1805 509.495 104.371C508.893 114.077 511.112 124.988 517.885 135.824C513.897 67.8381 585.645 48.6125 585.645 48.6125C522.437 72.7668 523.942 128.337 526.312 146.584C528.118 148.503 529.924 150.459 532.106 152.341C541.663 157.796 542.679 141.731 543.356 136.99C552.423 75.137 587.601 61.1035 587.601 61.1035C563.409 74.4974 553.326 115.996 552.16 136.99C551.182 155.012 546.479 159.715 543.13 160.768C546.704 163.138 550.58 165.471 554.869 167.729C568.451 172.018 567.397 148.24 567.849 140.752C571.047 90.6756 595.314 78.2598 595.314 78.2598C575.562 95.0775 575.938 136.087 575.486 151.927C575.035 167.992 571.724 174.839 567.698 177.097C572.815 181.837 577.969 188.008 582.371 195.495C591.89 189.588 591.89 170.738 591.552 162.311C589.633 115.846 603.553 96.5448 603.553 96.5448C595.352 113.965 595.841 144.402 597.948 158.962C603.215 194.742 592.154 206.217 588.655 208.889C590.235 213.291 591.476 217.994 592.266 222.997C610.326 215.698 613.561 199.52 613.072 187.744C612.696 178.414 611.229 173.635 610.664 167.992C606.375 126.606 612.771 117.576 612.771 117.576C609.272 126.945 614.013 161.408 616.91 171.829C631.094 222.96 603.403 235.601 593.245 238.461C593.057 245.195 592.116 252.269 590.084 259.793C590.084 259.793 641.29 247.001 633.464 191.808C632.712 186.616 630.379 180.37 629.363 176.006C628.912 174.012 628.423 172.319 627.933 170.55C618.49 144.891 621.951 127.96 621.951 127.96C622.854 142.634 628.159 153.845 632.335 161.897C635.684 162.348 637.603 162.837 639.597 163.477C644.864 165.132 657.318 173.071 657.318 173.071C667.739 179.881 675.113 177.849 675.113 177.849C682.187 176.758 689.373 163.778 690.125 161.709C691.442 158.097 692.27 154.485 687.416 153.808C685.309 153.507 682.751 154.447 678.725 154.56C672.555 154.748 667.363 154.974 661.193 151.024C658.935 149.594 652.502 142.746 657.543 139.849C662.359 137.028 661.193 145.719 675.377 147.788C683.541 148.954 690.84 150.346 693.925 150.045C696.709 149.97 697.537 148.578 698.891 147.261C699.531 146.659 699.907 146.133 700.434 145.568C701.6 144.026 710.743 135.523 704.121 131.008C694.941 124.687 695.054 115.394 695.054 115.394C700.735 125.214 706.68 124.725 706.68 124.725C711.571 125.101 711.458 120.361 711.232 118.479M642.08 117.238C640.537 115.206 638.694 113.475 636.211 112.648C633.276 111.669 628.385 108.961 624.924 106.891C624.058 106.402 623.306 105.951 622.553 105.499C621.5 104.86 620.86 104.446 620.86 104.446L621.312 104.596C612.207 98.0874 611.229 90.7508 611.229 90.7508C618.039 103.543 642.569 106.891 642.569 106.891C650.319 117.689 648.927 135.335 648.927 135.335C647.422 128.562 644.337 121.715 642.08 117.238ZM653.668 88.4181C650.32 87.1389 651.486 85.5588 651.486 85.5588C661.155 83.9786 669.733 78.2974 669.733 78.2974C669.47 79.8024 668.793 81.1192 667.927 82.2479C669.206 84.0162 671.577 88.531 667.325 92.7449C669.62 94.6637 670.937 96.3567 670.937 96.3567C668.416 95.8676 653.706 88.4181 653.706 88.4181" fill="white" fill-opacity="0.04"/>
<path d="M645.507 356.749C645.507 356.749 610.291 345.236 607.545 341.398C598.553 328.644 586.814 305.317 586.814 305.317L581.246 267.393C581.246 267.393 585.384 255.918 586.024 244.141C588.695 194.667 557.806 176.607 554.683 174.839C525.638 158.397 510.137 140.865 505.848 128.336C505.209 126.455 504.682 124.649 504.23 122.881C466.983 135.334 414.197 137.516 380.562 138.833C368.861 139.285 343.616 139.699 333.758 139.811C328.152 140.112 322.396 140.451 316.639 140.827H316.715C316.715 140.827 239.474 142.633 197.222 175.328C173.633 193.613 149.215 229.167 135.52 246.286C113.134 274.278 77.9183 328.268 45.8254 340.721C45.8254 340.721 59.9343 316.755 34.6889 298.808C27.3899 293.616 14.4851 288.5 0 286.731C0 286.731 14.8613 292.45 22.4989 304.414C27.0137 311.525 29.083 322.173 24.9068 331.127C24.9068 331.127 22.7999 315.4 12.8296 308.703C14.0712 313.444 12.7544 318.373 11.9266 322.361C10.3841 329.697 9.81974 343.054 17.7583 350.165C23.6276 355.432 39.1285 357.463 56.4353 349.337C77.354 339.555 101.96 315.476 120.659 290.155C153.767 245.458 158.395 238.799 179.238 215.021C183.377 210.318 198.05 189.851 219.006 178.677C210.391 186.465 208.209 194.667 208.209 194.667C208.209 194.667 213.927 224.051 177.508 257.009C168.44 265.211 141.653 280.26 141.653 280.26C141.653 280.26 141.653 297.943 139.583 310.208C138.455 316.905 135.558 336.47 135.558 336.47L154.407 380H228.337L217.012 359.533C217.012 359.533 190.45 352.798 184.242 346.553C181.195 343.43 177.621 334.626 177.997 330.262C178.486 324.882 186.688 310.359 186.688 310.359C186.688 310.359 208.886 302.721 234.131 288.725C241.919 284.361 257.759 271.155 264.343 264.609C274.99 253.924 283.907 247.189 291.093 242.825C291.206 242.674 291.319 242.524 291.432 242.373C291.432 242.373 291.319 242.524 291.206 242.712C305.352 234.171 312.651 235.112 312.651 235.112C300.386 239.363 281.913 255.541 273.899 263.668C269.271 268.409 258.737 278.529 258.737 278.529V279.47L259.978 315.701C275.592 339.479 298.091 379.962 298.091 379.962H370.328L363.857 360.06L325.632 344.86L308.137 312.842C311.372 291.735 344.744 261.298 356.37 251.215C336.392 243.502 322.471 241.809 322.471 241.809C340.079 239.702 359.493 243.916 375.031 248.882C382.556 251.027 392.714 254.676 406.748 260.959C413.972 264.195 427.215 269.161 435.116 271.945C449.563 277.024 460.248 277.1 471.874 277.702L474.583 263.668C468.526 260.733 441.023 245.947 427.29 214.569C427.29 214.569 450.617 250.387 484.252 257.799L474.922 307.462L468.037 350.466L486.623 379.925H555.775L542.832 357.125L514.389 342.828C505.735 339.103 518.715 315.664 518.715 315.664L559.161 241.357L533.953 307.65C547.234 324.882 561.418 343.844 569.357 356.297L584.858 379.925H660.782L645.582 356.711L645.507 356.749ZM159.336 375.147L142.104 334.664C142.104 334.664 145.264 316.943 145.866 311.713C146.656 305.016 147.785 289.403 147.785 289.403C147.785 289.403 148.726 304.452 148.199 316.604C147.936 322.699 146.845 334.363 146.845 334.363L164.189 375.147H159.298H159.336ZM330.786 154.786C326.234 155.087 321.719 155.463 317.166 155.877C299.069 157.607 281.085 160.805 264.079 166.675C255.614 169.647 247.412 173.409 240.038 178.263C236.351 180.671 232.852 183.38 229.767 186.465C228.224 187.97 226.795 189.587 225.515 191.318C224.876 192.183 224.274 193.049 223.747 193.914C223.484 194.366 223.22 194.817 222.995 195.231L222.656 195.871L222.505 196.247C222.205 205.314 220.399 214.381 217.163 222.809C213.89 231.538 208.961 239.514 203.167 246.625C197.373 253.773 190.488 259.943 183.151 265.324C175.739 270.628 167.839 275.181 159.411 278.492C163.474 276.498 167.312 274.09 171.036 271.644C174.799 269.161 178.373 266.452 181.834 263.593C188.757 257.912 194.965 251.44 200.27 244.33C205.537 237.219 209.751 229.393 212.61 221.116C215.508 212.839 216.824 204.11 216.9 195.381V194.93L217.05 194.478C217.238 193.989 217.351 193.764 217.464 193.425L217.915 192.522C218.179 191.92 218.517 191.393 218.818 190.829C219.458 189.738 220.135 188.722 220.85 187.706C222.28 185.712 223.86 183.869 225.553 182.138C228.901 178.639 232.664 175.629 236.614 172.92C244.515 167.578 253.169 163.59 261.973 160.429C270.814 157.269 279.919 154.898 289.061 153.168C298.204 151.437 307.459 150.233 316.715 149.405C321.342 148.992 325.97 148.766 330.598 148.54L344.368 148.089C353.548 147.75 362.728 147.524 371.871 147.11C381.051 146.809 390.193 146.358 399.374 145.906C408.554 145.38 417.696 144.928 426.839 143.837C422.362 144.928 417.847 145.831 413.294 146.621C408.742 147.411 404.189 148.051 399.637 148.653C390.494 149.895 381.352 150.835 372.172 151.738C362.992 152.528 353.849 153.318 344.631 153.883L330.899 154.71L330.786 154.786ZM429.021 255.73C437.825 260.282 446.478 264.571 455.734 268.333C445.989 266.189 436.47 262.953 427.29 258.89C422.7 256.933 418.261 254.676 413.746 252.682C409.306 250.65 404.716 248.844 400.088 247.151C395.461 245.421 390.795 243.878 386.093 242.373C381.39 240.868 376.649 239.551 371.871 238.235C362.314 235.714 352.645 233.532 342.825 231.763C352.833 231.839 363.142 232.93 372.962 234.848C382.782 236.805 392.451 239.589 401.857 243.013C406.56 244.781 411.225 246.625 415.74 248.844C420.217 251.064 424.619 253.397 429.021 255.654M490.573 375.071L475.072 349.149L491.137 258.702V259.642L480.302 347.794L497.12 375.034H490.573V375.071Z" fill="white" fill-opacity="0.04"/>
</svg>
